<?xml version="1.0" standalone="no"?>
<!DOCTYPE svg PUBLIC "-//W3C//DTD SVG 20010904//EN"
 "http://www.w3.org/TR/2001/REC-SVG-20010904/DTD/svg10.dtd">
<svg version="1.0" xmlns="http://www.w3.org/2000/svg"
 width="260.000000pt" height="260.000000pt" viewBox="0 0 260.000000 260.000000"
 preserveAspectRatio="xMidYMid meet">
<metadata>
Created by potrace 1.11, written by Peter Selinger 2001-2013
</metadata>
<g transform="translate(0.000000,260.000000) scale(0.100000,-0.100000)"
fill="#000000" stroke="none">
<path d="M0 1300 l0 -1300 1300 0 1300 0 0 1300 0 1300 -1300 0 -1300 0 0
-1300z m1870 666 c28 -20 52 -36 54 -36 2 0 20 16 40 36 l36 36 30 -22 c16
-11 32 -24 34 -29 9 -14 -169 -181 -194 -181 -19 0 -21 3 -15 28 14 58 16 101
6 121 -28 51 -184 4 -306 -91 -124 -96 -245 -307 -245 -427 0 -33 0 -34 39
-28 36 4 95 28 361 146 144 64 203 68 268 21 56 -40 72 -75 72 -154 0 -81 -29
-162 -107 -301 -85 -151 -158 -252 -248 -340 -99 -98 -156 -128 -240 -129 -69
0 -153 36 -181 79 -50 76 86 345 265 527 48 49 92 88 100 88 8 0 3 -12 -13
-31 -14 -17 -26 -36 -26 -43 0 -7 -39 -71 -87 -142 -124 -184 -177 -316 -159
-390 7 -26 9 -27 65 -21 63 5 82 14 156 70 102 78 201 213 313 427 96 186 119
277 79 328 -16 21 -102 14 -159 -12 -60 -28 -258 -113 -333 -145 -71 -29 -127
-40 -155 -29 -74 27 -95 97 -61 205 23 75 80 179 136 248 44 53 153 143 215
177 121 67 182 70 260 14z m-872 -55 c20 -11 51 -33 67 -51 27 -28 30 -38 30
-94 0 -53 -5 -70 -35 -120 -19 -31 -43 -66 -52 -76 -10 -11 -18 -21 -18 -23 0
-2 18 -9 40 -16 81 -24 130 -90 130 -173 0 -49 -21 -133 -46 -187 -83 -180
-109 -224 -170 -283 -118 -115 -217 -169 -319 -175 -66 -4 -72 -2 -107 27
l-37 31 14 45 c38 127 172 296 272 344 55 26 137 38 147 21 5 -7 -4 -11 -26
-11 -57 0 -179 -79 -224 -146 -65 -95 -116 -236 -94 -258 14 -14 91 7 155 44
107 61 236 222 312 388 93 205 74 295 -60 278 -59 -8 -178 -63 -242 -111 -25
-19 -53 -35 -62 -35 -20 0 -53 28 -53 46 0 14 58 57 130 95 51 27 166 121 223
183 41 44 87 125 87 151 0 9 -13 30 -29 46 -27 27 -35 29 -106 29 -85 0 -185
-29 -290 -84 -75 -39 -203 -163 -211 -206 -8 -35 -14 -37 -39 -10 -26 28 -13
63 48 127 84 89 173 141 324 193 106 36 186 39 241 11z m-335 -206 c18 -13 18
-16 -1 -82 -11 -37 -39 -120 -62 -183 -46 -124 -53 -150 -105 -340 -19 -69
-43 -147 -54 -172 -19 -45 -49 -67 -72 -52 -41 25 69 485 186 777 25 63 29 67
59 67 17 0 39 -7 49 -15z"/>
</g>
</svg>
